<svg width="65.315430" height="70.000000" viewBox="0 0 65.3154 70" fill="none" xmlns="http://www.w3.org/2000/svg" xmlns:xlink="http://www.w3.org/1999/xlink">
	<desc>
			Created with Pixso.
	</desc>
	<defs/>
	<path id="Vector" d="M64.9741 48.3384L46.5044 29.7336L48.5542 19.6375C49.0835 19.8438 49.6455 19.9517 50.2134 19.9558L50.2275 19.9558C52.8354 19.9866 54.9746 17.8975 55.0054 15.2893C55.0366 12.6812 52.9473 10.542 50.3389 10.511C47.731 10.4802 45.5918 12.5696 45.561 15.1775C45.5542 15.7356 45.6465 16.2905 45.8335 16.8164L34.9839 18.1404L17.2852 0.350098C17.0684 0.128418 16.772 0.00244141 16.4614 0C16.1553 0.00170898 15.8623 0.123535 15.645 0.3396L12.3364 3.62939C11.8809 4.08521 11.8809 4.82349 12.3364 5.27905L14.1167 7.08521C7.21924 19.7681 9.45947 35.4741 19.6279 45.7229C19.7212 45.812 19.8296 45.8843 19.9478 45.9363C19.874 46.3311 19.8359 46.7317 19.8335 47.1333L19.8335 60.6667L5.8335 60.6667C2.61328 60.6704 0.00390625 63.28 0 66.5L0 68.8333C0 69.4775 0.522461 70 1.1665 70L54.8335 70C55.4775 70 56 69.4775 56 68.8333L56 66.5C55.9961 63.28 53.3867 60.6704 50.1665 60.6667L36.1665 60.6667L36.1665 54.6689C38.3599 55.1289 40.5942 55.3633 42.8354 55.3689C48.2124 55.363 53.5039 54.0225 58.2354 51.4675L60.0249 53.2676C60.2422 53.4893 60.5386 53.6152 60.8486 53.6177C61.1548 53.616 61.4482 53.4941 61.6655 53.2781L64.9741 49.9883C65.4292 49.5325 65.4292 48.7942 64.9741 48.3384ZM48.5825 13.6348C49.4961 12.7261 50.9736 12.73 51.8823 13.6438C52.791 14.5574 52.7866 16.0349 51.873 16.9436C51.436 17.3784 50.8442 17.6226 50.2271 17.6226L50.2202 17.6226C48.9316 17.6157 47.8921 16.5657 47.8989 15.2771C47.9023 14.6602 48.1494 14.0698 48.5869 13.6348L48.5825 13.6348ZM45.8359 21.301L44.5269 27.7444L41.9556 25.158L45.8359 21.301ZM44.5107 19.3281L40.3105 23.5037L37.0615 20.2371L44.5107 19.3281ZM50.1665 63C52.0996 63 53.6665 64.5669 53.6665 66.5L53.6665 67.6667L2.3335 67.6667L2.3335 66.5C2.3335 64.5669 3.90039 63 5.8335 63L50.1665 63ZM33.8335 58.3333L33.8335 60.6667L22.1665 60.6667L22.1665 58.3333L33.8335 58.3333ZM22.1665 56L22.1665 47.1333C22.1665 44.303 24.7837 42 28 42C31.2163 42 33.8335 44.303 33.8335 47.1333L33.8335 56L22.1665 56ZM36.1665 52.29L36.1665 47.1333C36.1665 43.0161 32.5034 39.6667 28 39.6667C25.0884 39.6221 22.3657 41.1042 20.8228 43.5737C11.9463 34.2249 9.94775 20.2874 15.8384 8.8208L56.5298 49.7456C50.2461 52.9419 43.0435 53.8418 36.1665 52.29ZM60.8613 50.7944L59.2178 49.1411L16.4502 6.11572L14.7993 4.46143L16.4502 2.81641L33.8076 20.272C33.8159 20.272 33.8203 20.2871 33.8286 20.293L62.5171 49.1494L60.8613 50.7944Z" fill="#212121" fill-opacity="1.000000" fill-rule="nonzero"/>
	<path id="Vector" d="M28.0103 44.3333L28 44.3333C26.0669 44.3303 24.4976 45.895 24.4946 47.8281C24.4917 49.761 26.0562 51.3303 27.9893 51.3333L28 51.3333C29.9331 51.3362 31.5024 49.7715 31.5054 47.8386C31.5078 45.9055 29.9434 44.3362 28.0103 44.3333ZM28.8271 48.6604C28.6074 48.8789 28.3096 49.001 28 49C27.3555 48.9966 26.8359 48.4717 26.8394 47.8274C26.8408 47.5188 26.9648 47.2236 27.1831 47.0061C27.4004 46.79 27.6938 46.6682 28 46.6665C28.644 46.6699 29.1636 47.1948 29.1606 47.8394C29.1587 48.1477 29.0352 48.4429 28.8164 48.6604L28.8271 48.6604Z" fill="#2196F3" fill-opacity="1.000000" fill-rule="nonzero"/>
</svg>
