<svg width="70.000000" height="70.000000" viewBox="0 0 70 70" fill="none" xmlns="http://www.w3.org/2000/svg" xmlns:xlink="http://www.w3.org/1999/xlink">
	<desc>
			Created with Pixso.
	</desc>
	<defs>
		<clipPath id="clip60_7980">
			<rect id="astronaut 1" width="70.000000" height="70.000000" fill="white" fill-opacity="0"/>
		</clipPath>
	</defs>
	<rect id="astronaut 1" width="70.000000" height="70.000000" fill="#FFFFFF" fill-opacity="0"/>
	<g clip-path="url(#clip60_7980)">
		<path id="Vector" d="M69.9434 9.89648C69.8057 9.47522 69.4419 9.16736 69.002 9.10303L64.8228 8.49524L62.9526 4.70813C62.561 3.91016 61.2529 3.91016 60.8608 4.70813L58.9907 8.49524L54.8115 9.10315C54.3716 9.16736 54.0078 9.47424 53.8691 9.89661C53.7324 10.3188 53.8457 10.7832 54.1641 11.0924L57.1895 14.0408L56.4756 18.2035C56.4009 18.641 56.5806 19.0831 56.9385 19.3445C57.3013 19.6083 57.7749 19.6407 58.1685 19.4331L61.9062 17.4672L65.6445 19.4331C65.8149 19.5229 66.0024 19.5673 66.188 19.5673C66.4297 19.5673 66.6714 19.4926 66.874 19.3444C67.2334 19.0831 67.4131 18.6409 67.3374 18.2034L66.6235 14.0405L69.6484 11.0923C69.9658 10.782 70.0801 10.3187 69.9434 9.89648ZM64.5557 12.7992C64.2817 13.0663 64.1558 13.4536 64.2212 13.8317L64.6387 16.2688L62.4502 15.1185C62.2798 15.0287 62.0933 14.9844 61.9062 14.9844C61.7197 14.9844 61.5342 15.0287 61.3628 15.1185L59.1738 16.2688L59.5913 13.8317C59.6567 13.4536 59.5308 13.0675 59.2568 12.7992L57.4844 11.0725L59.9321 10.7167C60.3125 10.6617 60.6406 10.4227 60.8105 10.0784L61.9053 7.86169L62.9995 10.0784C63.1699 10.4225 63.4976 10.6617 63.8779 10.7167L66.3257 11.0725L64.5557 12.7992Z" fill="#2196F3" fill-opacity="1.000000" fill-rule="nonzero"/>
		<path id="Vector" d="M54.8335 44.8923L57.167 44.8923L57.167 47.2257L54.8335 47.2257L54.8335 44.8923Z" fill="#2196F3" fill-opacity="1.000000" fill-rule="evenodd"/>
		<path id="Vector" d="M54.8335 49.5591L57.167 49.5591L57.167 51.8925L54.8335 51.8925L54.8335 49.5591Z" fill="#2196F3" fill-opacity="1.000000" fill-rule="evenodd"/>
		<path id="Vector" d="M57.167 47.2257L59.5005 47.2257L59.5005 49.5591L57.167 49.5591L57.167 47.2257Z" fill="#2196F3" fill-opacity="1.000000" fill-rule="evenodd"/>
		<path id="Vector" d="M52.5005 47.2257L54.834 47.2257L54.834 49.5591L52.5005 49.5591L52.5005 47.2257Z" fill="#2196F3" fill-opacity="1.000000" fill-rule="evenodd"/>
		<path id="Vector" d="M46.667 57.7258L49.0005 57.7258L49.0005 60.0592L46.667 60.0592L46.667 57.7258Z" fill="#2196F3" fill-opacity="1.000000" fill-rule="evenodd"/>
		<path id="Vector" d="M46.667 62.3926L49.0005 62.3926L49.0005 64.726L46.667 64.726L46.667 62.3926Z" fill="#2196F3" fill-opacity="1.000000" fill-rule="evenodd"/>
		<path id="Vector" d="M49 60.0593L51.3335 60.0593L51.3335 62.3927L49 62.3927L49 60.0593Z" fill="#2196F3" fill-opacity="1.000000" fill-rule="evenodd"/>
		<path id="Vector" d="M44.3335 60.0593L46.667 60.0593L46.667 62.3927L44.3335 62.3927L44.3335 60.0593Z" fill="#2196F3" fill-opacity="1.000000" fill-rule="evenodd"/>
		<path id="Vector" d="M32.6665 53.0592L35 53.0592L35 55.3926L32.6665 55.3926L32.6665 53.0592Z" fill="#2196F3" fill-opacity="1.000000" fill-rule="evenodd"/>
		<path id="Vector" d="M32.6665 57.7258L35 57.7258L35 60.0592L32.6665 60.0592L32.6665 57.7258Z" fill="#2196F3" fill-opacity="1.000000" fill-rule="evenodd"/>
		<path id="Vector" d="M35 55.3925L37.3335 55.3925L37.3335 57.7258L35 57.7258L35 55.3925Z" fill="#2196F3" fill-opacity="1.000000" fill-rule="evenodd"/>
		<path id="Vector" d="M30.333 55.3925L32.6665 55.3925L32.6665 57.7258L30.333 57.7258L30.333 55.3925Z" fill="#2196F3" fill-opacity="1.000000" fill-rule="evenodd"/>
		<path id="Vector" d="M10.4995 13.3918L12.833 13.3918L12.833 15.7252L10.4995 15.7252L10.4995 13.3918Z" fill="#2196F3" fill-opacity="1.000000" fill-rule="evenodd"/>
		<path id="Vector" d="M10.4995 18.0586L12.833 18.0586L12.833 20.392L10.4995 20.392L10.4995 18.0586Z" fill="#2196F3" fill-opacity="1.000000" fill-rule="evenodd"/>
		<path id="Vector" d="M12.833 15.7252L15.1665 15.7252L15.1665 18.0586L12.833 18.0586L12.833 15.7252Z" fill="#2196F3" fill-opacity="1.000000" fill-rule="evenodd"/>
		<path id="Vector" d="M8.16602 15.7252L10.4995 15.7252L10.4995 18.0586L8.16602 18.0586L8.16602 15.7252Z" fill="#2196F3" fill-opacity="1.000000" fill-rule="evenodd"/>
		<path id="Vector" d="M54.0635 30.9739C53.4346 30.1256 52.5117 29.5797 51.4644 29.4326C50.4116 29.2833 49.3735 29.5598 48.5332 30.2026L45.7954 32.3014L45.7939 32.3026L41.6431 35.4026L38.6724 34.2195C43.9692 31.843 47.6709 26.545 47.6709 20.3943C47.6709 12.0315 40.8403 5.22742 32.4434 5.22742C24.0469 5.22742 17.2163 12.0315 17.2163 20.3943C17.2163 23.4254 18.1226 26.244 19.666 28.6158L13.6206 28.5634C13.6167 28.5634 13.6133 28.5634 13.6099 28.5634C13.5913 28.5634 13.5762 28.5726 13.5586 28.5739C13.4429 28.5785 13.3301 28.6019 13.2192 28.6416C13.1909 28.6521 13.1621 28.658 13.1353 28.6707C13.1211 28.6765 13.1069 28.6776 13.0933 28.6846L6.02051 32.1765C6.01953 32.1765 6.01855 32.1765 6.01855 32.1776L1.87646 34.1693C1.83105 34.1891 1.78467 34.2159 1.73877 34.2463C0.0878906 35.3452 -0.474121 37.5037 0.430176 39.2676C0.911621 40.2057 1.73193 40.8964 2.74023 41.2125C3.12842 41.3337 3.52539 41.3933 3.91943 41.3933C4.55322 41.3933 5.18066 41.2382 5.75586 40.9314L8.7915 39.3168L13.7441 36.7594L16.7124 36.7418L4.80859 48.5884C4.80713 48.5897 4.80615 48.5897 4.80469 48.5908L1.87646 51.5074C1.18457 52.1958 0.804199 53.1093 0.804199 54.0835C0.804199 55.0565 1.18457 55.9723 1.87646 56.662C2.58691 57.3689 3.52148 57.7236 4.45605 57.7236C5.3916 57.7236 6.3252 57.3689 7.0376 56.662L9.9126 53.7988L13.7207 50.9556L15.6909 52.918L11.8374 56.7551C11.8364 56.7565 11.8354 56.7565 11.834 56.7576L8.90576 59.6742C8.21387 60.3625 7.8335 61.276 7.8335 62.2502C7.8335 63.2233 8.21387 64.139 8.90576 64.8287C9.61621 65.5356 10.5518 65.8904 11.4863 65.8904C12.4209 65.8904 13.3564 65.5356 14.0684 64.8287L16.9976 61.912L21.6841 57.2454C21.6855 57.2441 21.6855 57.243 21.6865 57.2418L23.895 55.0542L23.8867 55.046C23.9009 55.0321 23.9209 55.0273 23.9346 55.0122L35.2354 42.6349L42.8281 43.7153C42.8828 43.7235 42.9375 43.7269 42.9927 43.7269C43.1338 43.7269 43.27 43.6931 43.4019 43.6429C43.4404 43.629 43.4741 43.6104 43.5107 43.5917C43.5527 43.5707 43.5967 43.5591 43.6367 43.5322L50.666 38.8655C50.6914 38.848 50.7056 38.8199 50.73 38.8014C50.7578 38.7793 50.793 38.77 50.8184 38.7454L53.6001 36.1401C55.0469 34.7842 55.2466 32.5629 54.0635 30.9739ZM4.66016 38.8722C4.28125 39.0753 3.85059 39.116 3.43896 38.9855C3.03027 38.8583 2.69922 38.5793 2.50537 38.2026C2.15283 37.5165 2.35693 36.6812 2.97412 36.2297L5.84814 34.8472L6.53955 36.869L6.83008 37.7183L4.66016 38.8722ZM12.3101 34.8741L8.92334 36.6241L8.36475 34.9907L7.96338 33.817L12.3965 31.6282L12.3101 34.8741ZM45.3403 20.392C45.3403 22.4009 44.8608 24.2958 44.0298 25.9908L34.8833 21.8363C34.7876 20.5822 34.1367 19.4843 33.1587 18.8005L36.3613 8.16858C41.5625 9.823 45.3403 14.6753 45.3403 20.392ZM19.5518 20.392C19.5518 13.3159 25.3364 7.55835 32.4458 7.55835C32.999 7.55835 33.5405 7.60498 34.0757 7.67273L30.9434 18.0714C30.9014 18.0702 30.8618 18.0585 30.8184 18.0585C28.5596 18.0585 26.7222 19.8901 26.7222 22.142C26.7222 24.3937 28.5596 26.2255 30.8184 26.2255C32.3374 26.2255 33.6499 25.3866 34.3584 24.1592L42.8071 27.9976C40.4565 31.1616 36.6938 33.2256 32.4458 33.2256C25.3364 33.2256 19.5518 27.4679 19.5518 20.392ZM32.5815 22.142C32.5815 23.1068 31.7905 23.892 30.8184 23.892C29.8467 23.892 29.0557 23.1068 29.0557 22.142C29.0557 21.1771 29.8467 20.392 30.8184 20.392C31.7905 20.392 32.5815 21.1771 32.5815 22.142ZM5.3916 55.0074C4.875 55.5197 4.03857 55.5186 3.52295 55.0087C3.27441 54.7601 3.1377 54.4324 3.1377 54.0835C3.1377 53.7358 3.27441 53.408 3.52295 53.1619L5.62744 51.0653L7.48926 52.9192L5.3916 55.0074ZM12.4224 63.1743C11.9053 63.6865 11.0679 63.6877 10.5518 63.1755C10.3032 62.927 10.167 62.5994 10.167 62.2504C10.167 61.9027 10.3032 61.5748 10.5518 61.3287L12.6577 59.2311L13.5386 60.1073L14.521 61.085L12.4224 63.1743ZM20.0386 55.5862C20.0371 55.5873 20.0361 55.5873 20.0347 55.5885L16.1743 59.4386L15.2935 58.5624L14.311 57.5847L18.168 53.7451C18.168 53.7451 18.168 53.7451 18.168 53.744C18.1694 53.7428 18.1704 53.7428 18.1714 53.7417C18.2593 53.6542 18.314 53.5492 18.3677 53.4454C18.3828 53.415 18.4121 53.3894 18.4248 53.3579C18.4609 53.2681 18.4668 53.1713 18.481 53.0767C18.4878 53.0229 18.5112 52.9729 18.5112 52.918C18.5112 52.8397 18.4829 52.764 18.4668 52.6869C18.4531 52.6169 18.4531 52.5457 18.4258 52.4781C18.3818 52.3685 18.3057 52.2717 18.2266 52.1771C18.2046 52.1514 18.1963 52.1187 18.1719 52.0942C18.1719 52.0942 18.1719 52.0942 18.1704 52.0942C18.1694 52.0931 18.1694 52.0907 18.168 52.0896L14.6528 48.5895C14.6157 48.5522 14.5679 48.537 14.5259 48.5056C14.4639 48.4578 14.4043 48.4135 14.3354 48.3795C14.269 48.3468 14.2017 48.327 14.1313 48.3083C14.0566 48.2872 13.9844 48.271 13.9062 48.2651C13.835 48.2605 13.7686 48.2675 13.6973 48.2756C13.6191 48.2849 13.5459 48.2954 13.4702 48.3199C13.3965 48.3433 13.3311 48.3794 13.2637 48.418C13.2202 48.4424 13.1714 48.4507 13.1304 48.481L9.25146 51.3767L7.28076 49.4143L12.5283 44.1946L22.0674 53.576L20.0386 55.5862ZM34.9546 40.2373C34.9209 40.2327 34.8892 40.2455 34.8555 40.2432C34.77 40.2385 34.6885 40.2444 34.6035 40.2583C34.5371 40.2699 34.4736 40.2828 34.4106 40.3049C34.3364 40.3307 34.2686 40.3656 34.1997 40.4076C34.1343 40.4473 34.0747 40.4893 34.0176 40.5417C33.9897 40.5662 33.9561 40.578 33.9302 40.6058L23.6528 51.8621L14.1851 42.5507L20.3823 36.386C20.8389 35.9309 20.8408 35.1924 20.3862 34.7351C20.1562 34.5052 19.854 34.392 19.5518 34.3933L19.5518 34.3922L14.6982 34.4213L14.7593 30.9049L21.5493 30.9634C24.3164 33.7937 28.1758 35.559 32.4458 35.559C33.4028 35.559 34.3359 35.4598 35.2446 35.2905C35.3325 35.3606 35.4185 35.4318 35.5283 35.4761L40.7993 37.5762L41.1333 39.2351L41.5229 41.1718L34.9546 40.2373ZM43.7944 40.627L43.1094 37.219L46.2734 34.8564L47.1021 35.9554L48.3447 37.6051L43.7944 40.627ZM52.0054 34.4341L50.1724 36.1515L48.1357 33.4471L49.9546 32.053C50.2939 31.7917 50.7222 31.6855 51.1421 31.7404C51.5645 31.7998 51.938 32.0204 52.1919 32.3622C52.666 33.0004 52.5854 33.8905 52.0054 34.4341Z" fill="#212121" fill-opacity="1.000000" fill-rule="nonzero"/>
		<path id="Vector" d="M29.7549 40.5652L25.0669 35.8984C24.6133 35.4447 23.8755 35.4447 23.4209 35.8984L18.7344 40.5652C18.5146 40.7856 18.3911 41.0819 18.3911 41.3923C18.3911 41.7026 18.5137 42.0001 18.7344 42.2195L23.4209 46.8861C23.6479 47.1124 23.9468 47.2256 24.2446 47.2256C24.542 47.2256 24.8403 47.1124 25.0669 46.8861L29.7549 42.2195C29.9741 42.0001 30.0986 41.7026 30.0986 41.3923C30.0986 41.0819 29.9751 40.7844 29.7549 40.5652ZM24.2446 44.4128L21.2109 41.3923L24.2446 38.3717L27.2788 41.3923L24.2446 44.4128Z" fill="#212121" fill-opacity="1.000000" fill-rule="nonzero"/>
		<path id="Vector" d="M37.5469 11.0923L36.9834 13.358C37.1387 13.3966 40.7847 14.3462 40.7847 18.0586L43.1182 18.0586C43.1177 13.6461 39.4741 11.5718 37.5469 11.0923Z" fill="#212121" fill-opacity="1.000000" fill-rule="nonzero"/>
		<path id="Vector" d="M40.7842 20.3918L43.1177 20.3918L43.1177 22.7252L40.7842 22.7252L40.7842 20.3918Z" fill="#212121" fill-opacity="1.000000" fill-rule="evenodd"/>
	</g>
</svg>
