<svg width="70.000000" height="70.000000" viewBox="0 0 70 70" fill="none" xmlns="http://www.w3.org/2000/svg" xmlns:xlink="http://www.w3.org/1999/xlink">
	<desc>
			Created with Pixso.
	</desc>
	<defs>
		<clipPath id="clip60_7961">
			<rect id="clock 1" width="70.000000" height="70.000000" fill="white" fill-opacity="0"/>
		</clipPath>
	</defs>
	<rect id="clock 1" width="70.000000" height="70.000000" fill="#FFFFFF" fill-opacity="0"/>
	<g clip-path="url(#clip60_7961)">
		<path id="Vector" d="M68.4614 33.4716C68.4575 14.9819 53.4658 -0.00378418 34.9756 0C16.4858 0.00378418 1.5 14.9963 1.50391 33.486C1.50732 48.0503 10.9253 60.9413 24.7993 65.3713C24.9321 65.413 25.0698 65.4343 25.208 65.4338C25.4717 65.4332 25.7305 65.3628 25.9575 65.2288C26.2524 65.0541 26.4731 64.7764 26.5767 64.449L35.0317 37.6521C37.3428 37.6404 39.2065 35.7567 39.1943 33.4459C39.1826 31.1345 37.2998 29.2706 34.9883 29.2823C34.3667 29.285 33.7529 29.4282 33.1943 29.701L22.0249 18.5302C21.4707 17.9951 20.5879 18.0106 20.0527 18.5643C19.5303 19.1053 19.5303 19.962 20.0527 20.5031L31.2163 31.6792C30.3594 33.4277 30.8491 35.5383 32.3896 36.7303L24.334 62.2648C8.41357 56.4003 0.261719 38.7406 6.12598 22.8203C11.9907 6.90002 29.6504 -1.25183 45.5708 4.61267C61.4907 10.4772 69.6426 28.1373 63.7783 44.0571C60.9131 51.8351 55.0259 58.1252 47.4546 61.4989L46.5845 57.3989C46.4253 56.6454 45.6846 56.1637 44.9307 56.3234C44.6934 56.374 44.4727 56.4857 44.291 56.6475L35.8979 64.1409C35.3223 64.6531 35.271 65.5348 35.7837 66.1105C35.9502 66.2974 36.1636 66.4363 36.4028 66.5126L47.1187 69.9327C47.8521 70.1682 48.6377 69.765 48.873 69.0312C48.9478 68.7994 48.9604 68.5527 48.9102 68.3145L48.0547 64.2915C60.4453 59.0679 68.4902 46.9181 68.4614 33.4716ZM34.9829 32.0765C35.7529 32.0765 36.3779 32.7014 36.3779 33.4716C36.3779 34.2422 35.7529 34.8665 34.9829 34.8665C34.2124 34.8665 33.5879 34.2422 33.5879 33.4716C33.5879 32.7014 34.2124 32.0765 34.9829 32.0765ZM39.5776 64.5916L44.355 60.3298L45.6738 66.5431L39.5776 64.5916Z" fill="#212121" fill-opacity="1.000000" fill-rule="nonzero"/>
		<path id="Vector" d="M33.5879 6.96729L33.5879 9.75732C33.5879 10.528 34.2124 11.1522 34.9829 11.1522C35.7529 11.1522 36.3779 10.528 36.3779 9.75732L36.3779 6.96729C36.3779 6.19727 35.7529 5.57239 34.9829 5.57239C34.2124 5.57239 33.5879 6.19727 33.5879 6.96729Z" fill="#2196F3" fill-opacity="1.000000" fill-rule="nonzero"/>
		<path id="Vector" d="M8.479 32.0765C7.7085 32.0765 7.08398 32.7014 7.08398 33.4714C7.08398 34.2422 7.7085 34.8665 8.479 34.8665L11.269 34.8665C12.0396 34.8665 12.6636 34.2422 12.6636 33.4714C12.6636 32.7014 12.0396 32.0765 11.269 32.0765L8.479 32.0765Z" fill="#2196F3" fill-opacity="1.000000" fill-rule="nonzero"/>
		<path id="Vector" d="M61.4868 34.8665C62.2573 34.8665 62.8818 34.2422 62.8818 33.4714C62.8818 32.7014 62.2573 32.0765 61.4868 32.0765L58.6968 32.0765C57.9268 32.0765 57.3018 32.7014 57.3018 33.4714C57.3018 34.2422 57.9268 34.8665 58.6968 34.8665L61.4868 34.8665Z" fill="#2196F3" fill-opacity="1.000000" fill-rule="nonzero"/>
	</g>
</svg>
