<svg aria-hidden="true" style="position: absolute; width: 0; height: 0; overflow: hidden;" version="1.1" xmlns="http://www.w3.org/2000/svg" xmlns:xlink="http://www.w3.org/1999/xlink">
<defs>
<symbol id="icon-6-svg" viewBox="0 0 62 32">
<path d="M31.507 15.038c-0.294-0.43-0.435-0.938-0.402-1.449v-2.1c0-0.644 0.133-1.133 0.4-1.468s0.724-0.501 1.372-0.5c0.609 0 1.042 0.142 1.298 0.427 0.279 0.364 0.415 0.808 0.384 1.256v0.494h-1.090v-0.5c0.004-0.164-0.007-0.327-0.032-0.489-0.016-0.111-0.071-0.213-0.156-0.291-0.112-0.084-0.253-0.124-0.395-0.113-0.149-0.011-0.297 0.032-0.415 0.12-0.095 0.086-0.158 0.198-0.181 0.321-0.031 0.171-0.046 0.345-0.043 0.519v2.549c-0.017 0.246 0.031 0.492 0.14 0.716 0.054 0.076 0.13 0.136 0.218 0.174s0.185 0.052 0.281 0.040c0.14 0.011 0.278-0.031 0.386-0.115 0.089-0.084 0.146-0.192 0.163-0.31 0.026-0.169 0.037-0.34 0.034-0.511v-0.517h1.090v0.472c0.031 0.467-0.102 0.931-0.377 1.321-0.25 0.312-0.677 0.468-1.304 0.468s-1.102-0.167-1.37-0.513z"></path>
<path d="M36.046 15.059c-0.275-0.327-0.413-0.803-0.413-1.434v-2.21c0-0.624 0.138-1.096 0.413-1.417s0.736-0.48 1.381-0.479c0.641 0 1.099 0.16 1.374 0.479 0.275 0.321 0.415 0.793 0.415 1.417v2.21c0 0.624-0.14 1.102-0.42 1.432s-0.736 0.494-1.37 0.494-1.104-0.167-1.381-0.491zM37.935 14.529c0.099-0.205 0.143-0.429 0.131-0.654v-2.705c0.012-0.22-0.032-0.44-0.129-0.641-0.055-0.077-0.132-0.138-0.222-0.176s-0.19-0.051-0.287-0.037c-0.098-0.013-0.198 0-0.288 0.038s-0.168 0.099-0.224 0.176c-0.099 0.2-0.144 0.42-0.131 0.641v2.718c-0.013 0.225 0.031 0.449 0.131 0.654 0.064 0.069 0.142 0.124 0.23 0.162s0.183 0.057 0.28 0.057c0.097 0 0.192-0.020 0.28-0.057s0.166-0.093 0.23-0.162v-0.013z"></path>
<path d="M40.528 9.585h1.174l0.882 4.076 0.903-4.076h1.142l0.115 5.884h-0.844l-0.090-4.089-0.871 4.089h-0.677l-0.903-4.104-0.084 4.104h-0.853l0.106-5.884z"></path>
<path d="M46.060 9.585h1.828c1.053 0 1.58 0.557 1.58 1.671 0 1.067-0.555 1.6-1.664 1.598h-0.623v2.615h-1.129l0.007-5.884zM47.622 12.099c0.111 0.013 0.225 0.004 0.332-0.028s0.206-0.086 0.289-0.158c0.129-0.199 0.186-0.432 0.162-0.664 0.006-0.18-0.012-0.359-0.054-0.534-0.016-0.058-0.044-0.113-0.083-0.161s-0.087-0.088-0.143-0.118c-0.156-0.071-0.33-0.104-0.503-0.094h-0.438v1.758h0.438z"></path>
<path d="M51.096 9.585h1.212l1.244 5.884h-1.052l-0.246-1.357h-1.081l-0.253 1.357h-1.068l1.244-5.884zM52.131 13.43l-0.422-2.47-0.422 2.47h0.844z"></path>
<path d="M54.556 9.585h0.79l1.512 3.356v-3.356h0.937v5.884h-0.752l-1.521-3.504v3.504h-0.968l0.002-5.884z"></path>
<path d="M59.988 13.225l-1.257-3.632h1.058l0.767 2.333 0.72-2.333h1.036l-1.241 3.632v2.243h-1.083v-2.243z"></path>
<path d="M33.25 18.042v0.308h-0.921v2.391h-0.386v-2.391h-0.925v-0.308h2.232z"></path>
<path d="M36.136 20.74h-0.298c-0.030 0.002-0.060-0.007-0.084-0.026-0.023-0.016-0.040-0.037-0.050-0.062l-0.266-0.641h-1.277l-0.267 0.641c-0.008 0.027-0.021 0.052-0.041 0.073-0.023 0.018-0.053 0.027-0.084 0.026h-0.298l1.129-2.698h0.393l1.142 2.688zM34.268 19.738h1.066l-0.451-1.098c-0.033-0.083-0.061-0.168-0.084-0.254-0.016 0.051-0.029 0.1-0.043 0.143l-0.041 0.113-0.447 1.096z"></path>
<path d="M38.082 20.475c0.071 0.004 0.141 0.004 0.212 0 0.061-0.006 0.121-0.017 0.181-0.032 0.055-0.013 0.11-0.029 0.163-0.049 0.050-0.019 0.099-0.043 0.151-0.066v-0.607h-0.451c-0.011 0.001-0.022-0.001-0.033-0.005s-0.020-0.009-0.028-0.017c-0.007-0.006-0.013-0.014-0.017-0.022s-0.005-0.018-0.005-0.027v-0.207h0.876v1.034c-0.071 0.048-0.147 0.091-0.226 0.128-0.081 0.038-0.164 0.068-0.25 0.092-0.093 0.026-0.187 0.044-0.282 0.056-0.109 0.011-0.219 0.017-0.329 0.017-0.195 0.002-0.388-0.033-0.569-0.1-0.169-0.064-0.323-0.16-0.451-0.282-0.126-0.123-0.224-0.268-0.291-0.427-0.071-0.179-0.106-0.369-0.104-0.56-0.002-0.192 0.032-0.383 0.102-0.564 0.065-0.16 0.164-0.305 0.291-0.427 0.129-0.121 0.283-0.217 0.451-0.28 0.193-0.069 0.399-0.103 0.605-0.101 0.105-0 0.21 0.008 0.314 0.024 0.091 0.014 0.182 0.037 0.269 0.068 0.079 0.028 0.154 0.064 0.226 0.107 0.069 0.042 0.135 0.089 0.196 0.141l-0.108 0.167c-0.009 0.015-0.021 0.028-0.036 0.037s-0.033 0.014-0.052 0.014c-0.025-0.001-0.049-0.008-0.070-0.021-0.034-0.017-0.070-0.039-0.111-0.064-0.048-0.028-0.099-0.053-0.151-0.073-0.067-0.026-0.137-0.046-0.208-0.060-0.094-0.017-0.191-0.024-0.286-0.024-0.149-0.002-0.297 0.024-0.436 0.075-0.126 0.048-0.239 0.121-0.332 0.214-0.094 0.097-0.165 0.211-0.21 0.335-0.101 0.292-0.101 0.607 0 0.9 0.049 0.127 0.126 0.243 0.226 0.34 0.093 0.093 0.205 0.165 0.329 0.214 0.144 0.047 0.296 0.065 0.447 0.053z"></path>
<path d="M41.679 20.433h1.232v0.308h-1.609v-2.699h0.386l-0.009 2.391z"></path>
<path d="M44.194 20.74h-0.386v-2.699h0.386v2.699z"></path>
<path d="M45.629 18.054c0.023 0.012 0.043 0.029 0.059 0.049l1.65 2.034c-0.002-0.032-0.002-0.064 0-0.096 0-0.030 0-0.060 0-0.088v-1.923h0.336v2.709h-0.194c-0.029 0.002-0.057-0.003-0.084-0.015-0.023-0.013-0.044-0.031-0.061-0.051l-1.647-2.032c0 0.032 0 0.062 0 0.092s0 0.058 0 0.083v1.923h-0.323v-2.699h0.201c0.022 0 0.043 0.004 0.063 0.013z"></path>
<path d="M50.516 18.042v0.297h-1.368v0.891h1.108v0.286h-1.108v0.921h1.368v0.297h-1.765v-2.692h1.765z"></path>
<path d="M10.073 1.376l17.137 4.607v16.142l-17.137-4.604v-16.144zM8.974 0v18.304l19.333 5.198v-18.302l-19.333-5.201z"></path>
<path d="M19.335 32l-19.335-5.203v-18.303l19.335 5.201v18.305z"></path>
<path d="M9.294 1.169l16.914 4.549-7.193 6.812-16.916-4.551 7.195-6.809zM8.974 0l-8.974 8.495 19.335 5.2 8.972-8.495-19.333-5.2z"></path>
<path d="M20.424 30.97l7.884-7.465-7.884-2.122v9.587z"></path>
</symbol>
<symbol id="icon-5-svg" viewBox="0 0 40 32">
<path d="M3.056 26.742c0.156 0.195 0.24 0.438 0.235 0.688 0.008 0.163-0.021 0.326-0.084 0.476s-0.159 0.285-0.281 0.393c-0.304 0.231-0.681 0.343-1.061 0.317h-1.865v-4.361h1.827c0.361-0.024 0.718 0.078 1.012 0.29 0.118 0.099 0.211 0.224 0.273 0.366s0.089 0.296 0.081 0.45c0.011 0.241-0.065 0.477-0.212 0.667-0.142 0.173-0.337 0.293-0.556 0.341 0.247 0.045 0.471 0.177 0.63 0.373zM0.868 26.084h0.781c0.178 0.013 0.354-0.038 0.497-0.145 0.058-0.053 0.104-0.119 0.133-0.193s0.041-0.154 0.034-0.233c0.005-0.079-0.007-0.158-0.035-0.232s-0.073-0.14-0.13-0.194c-0.147-0.11-0.329-0.162-0.511-0.147h-0.768v1.144zM2.221 27.756c0.063-0.055 0.112-0.123 0.144-0.2s0.046-0.16 0.041-0.243c0.005-0.084-0.010-0.168-0.043-0.246s-0.083-0.147-0.146-0.202c-0.153-0.114-0.341-0.17-0.531-0.158h-0.819v1.199h0.83c0.187 0.011 0.372-0.042 0.524-0.151z"></path>
<path d="M6.79 28.617l-1.017-1.704h-0.382v1.704h-0.874v-4.361h1.655c0.417-0.029 0.83 0.103 1.152 0.371 0.231 0.237 0.371 0.549 0.393 0.879s-0.073 0.659-0.27 0.925c-0.204 0.235-0.483 0.391-0.789 0.443l1.082 1.743h-0.95zM5.392 26.319h0.715c0.497 0 0.745-0.22 0.745-0.66 0.005-0.090-0.009-0.18-0.040-0.264s-0.080-0.161-0.142-0.226c-0.157-0.131-0.359-0.195-0.563-0.177h-0.723l0.009 1.327z"></path>
<path d="M11.568 27.739h-1.742l-0.308 0.878h-0.917l1.6-4.312h0.991l1.593 4.312h-0.917l-0.301-0.878zM11.335 27.079l-0.637-1.841-0.637 1.841h1.273z"></path>
<path d="M17.55 28.617h-0.868l-1.946-2.965v2.965h-0.866v-4.361h0.866l1.946 2.982v-2.982h0.868v4.361z"></path>
<path d="M22.502 27.573c-0.18 0.329-0.453 0.597-0.785 0.769-0.378 0.192-0.797 0.286-1.22 0.275h-1.545v-4.361h1.545c0.423-0.011 0.841 0.081 1.22 0.268 0.332 0.168 0.606 0.433 0.785 0.761 0.179 0.355 0.272 0.747 0.272 1.144s-0.093 0.789-0.272 1.144zM21.509 27.469c0.248-0.29 0.384-0.659 0.384-1.041s-0.136-0.751-0.384-1.041c-0.299-0.262-0.69-0.396-1.086-0.371h-0.603v2.823h0.603c0.397 0.025 0.787-0.108 1.086-0.371z"></path>
<path d="M12.111 0c0 0 11.201 4.246 10.963 10.39v10.392c0 0-11.193-4.248-10.959-10.392l-0.004-10.39z"></path>
<path d="M33.054 18.349c2.115-1.462 4.562-2.367 7.117-2.633v-3.253c-2.943 1.139-5.44 3.204-7.117 5.886z"></path>
<path d="M31.783 19.329c1.732-3.5 4.733-6.202 8.388-7.548v-9.374c0 0-15.952 6.048-15.614 14.797v14.795c0 0 0.711-0.271 1.829-0.778 0-0.473 0-0.95 0.051-1.429 0.33-4.062 2.253-7.826 5.347-10.464z"></path>
<path d="M30.266 24.825c0.084-1.026 0.271-2.041 0.558-3.029-1.926 2.279-3.093 5.106-3.335 8.085-0.024 0.281-0.036 0.562-0.043 0.852 0.906-0.437 1.96-0.982 3.068-1.623-0.283-1.409-0.366-2.851-0.248-4.284z"></path>
<path d="M30.9 24.878c-0.106 1.296-0.040 2.601 0.197 3.879 4.358-2.618 9.255-6.664 9.066-11.553v-0.426c-3.114 0.35-6.027 1.716-8.292 3.89-0.53 1.347-0.858 2.766-0.972 4.21z"></path>
</symbol>
<symbol id="icon-4-svg" viewBox="0 0 61 32">
<path d="M9.442 9.77h0.002c1.723 0 3.119 1.361 3.119 3.040v0.002c0 1.679-1.396 3.040-3.119 3.040h-0.002c-1.723 0-3.119-1.361-3.119-3.040v-0.002c0-1.679 1.397-3.040 3.119-3.040z"></path>
<path d="M32.467 8.798c-0.005-2.332-0.957-4.566-2.649-6.215s-3.985-2.578-6.377-2.583v0c-2.393 0.004-4.687 0.932-6.38 2.582s-2.646 3.884-2.651 6.217v12.858c0 0 18.055-1.96 18.057-12.856v-0.002z"></path>
<path d="M0 25.876c0.004 1.622 0.667 3.177 1.845 4.325s2.772 1.794 4.437 1.799c1.665-0.005 3.26-0.651 4.436-1.798s1.84-2.701 1.845-4.323v-8.947c0 0-12.563 1.364-12.563 8.945zM6.281 27.479c-0.325 0-0.643-0.094-0.914-0.27s-0.481-0.426-0.606-0.719c-0.125-0.293-0.157-0.615-0.094-0.926s0.22-0.597 0.45-0.821c0.23-0.224 0.523-0.377 0.842-0.439s0.65-0.030 0.95 0.091c0.301 0.121 0.558 0.327 0.738 0.59s0.277 0.574 0.277 0.891c0.001 0.211-0.041 0.42-0.123 0.615s-0.203 0.373-0.356 0.522-0.335 0.268-0.535 0.349c-0.2 0.081-0.414 0.123-0.631 0.123v-0.006z"></path>
<path d="M19.105 26.485h-1.285v1.327h-0.669v-3.248h2.115v0.542h-1.446v0.839h1.285v0.54zM22.322 26.262q0 0.48-0.17 0.841t-0.485 0.558-0.724 0.196q-0.404 0-0.721-0.194t-0.491-0.554-0.176-0.829v-0.161q0-0.48 0.173-0.844t0.489-0.56 0.722-0.195 0.722 0.195 0.489 0.56 0.173 0.842v0.145zM21.644 26.115q0-0.511-0.183-0.776t-0.522-0.265q-0.337 0-0.52 0.262t-0.185 0.769v0.158q0 0.497 0.183 0.772t0.526 0.274q0.337 0 0.518-0.264t0.183-0.771v-0.158zM24.492 26.96q0-0.19-0.134-0.291t-0.482-0.214-0.551-0.222q-0.553-0.299-0.553-0.805 0-0.263 0.148-0.47t0.426-0.322 0.623-0.116q0.348 0 0.62 0.126t0.423 0.356 0.151 0.522h-0.669q0-0.223-0.141-0.347t-0.395-0.124q-0.245 0-0.381 0.104t-0.136 0.273q0 0.158 0.159 0.265t0.47 0.201q0.571 0.172 0.832 0.426t0.261 0.634q0 0.422-0.319 0.662t-0.859 0.24q-0.375 0-0.683-0.137t-0.47-0.376-0.162-0.553h0.672q0 0.538 0.642 0.538 0.239 0 0.373-0.097t0.134-0.271zM28.062 25.106h-0.995v2.706h-0.669v-2.706h-0.982v-0.542h2.646v0.542zM30.397 26.405h-1.285v0.87h1.508v0.538h-2.177v-3.248h2.173v0.542h-1.504v0.774h1.285v0.524zM32.216 26.623h-0.533v1.189h-0.669v-3.248h1.207q0.576 0 0.888 0.257t0.312 0.725q0 0.332-0.144 0.554t-0.436 0.354l0.703 1.327v0.031h-0.718l-0.609-1.189zM31.682 26.081h0.54q0.252 0 0.39-0.128t0.138-0.354q0-0.23-0.131-0.361t-0.4-0.132h-0.538v0.975zM35.736 26.668v1.144h-0.669v-3.248h1.267q0.366 0 0.644 0.134t0.427 0.38 0.149 0.561q0 0.477-0.327 0.753t-0.905 0.276h-0.587zM35.736 26.126h0.598q0.266 0 0.405-0.125t0.139-0.357q0-0.239-0.141-0.386t-0.388-0.152h-0.613v1.020zM39.968 26.405h-1.285v0.87h1.508v0.538h-2.177v-3.248h2.173v0.542h-1.504v0.774h1.285v0.524zM43.073 25.106h-0.995v2.706h-0.669v-2.706h-0.982v-0.542h2.646v0.542zM45.409 26.405h-1.285v0.87h1.508v0.538h-2.177v-3.248h2.173v0.542h-1.504v0.774h1.285v0.524zM47.227 26.623h-0.533v1.189h-0.669v-3.248h1.207q0.576 0 0.888 0.257t0.312 0.725q0 0.332-0.144 0.554t-0.436 0.354l0.703 1.327v0.031h-0.718l-0.609-1.189zM46.694 26.081h0.54q0.252 0 0.39-0.128t0.138-0.354q0-0.23-0.131-0.361t-0.4-0.132h-0.538v0.975zM50.625 26.96q0-0.19-0.134-0.291t-0.482-0.214-0.551-0.222q-0.553-0.299-0.553-0.805 0-0.263 0.148-0.47t0.426-0.322 0.624-0.116q0.348 0 0.62 0.126t0.423 0.356 0.151 0.522h-0.669q0-0.223-0.141-0.347t-0.395-0.124q-0.245 0-0.382 0.104t-0.136 0.273q0 0.158 0.16 0.265t0.47 0.201q0.571 0.172 0.832 0.426t0.261 0.634q0 0.422-0.319 0.662t-0.859 0.24q-0.375 0-0.683-0.137t-0.47-0.376-0.162-0.553h0.671q0 0.538 0.643 0.538 0.239 0 0.373-0.097t0.134-0.271z"></path>
</symbol>
<symbol id="icon-3-svg" viewBox="0 0 57 32">
<path d="M20.451 27.091c0.008 0 0.016 0.002 0.023 0.005s0.014 0.008 0.019 0.013l0.11 0.115c-0.085 0.093-0.191 0.168-0.309 0.218-0.138 0.055-0.287 0.082-0.438 0.078-0.141 0.003-0.281-0.022-0.411-0.073-0.118-0.047-0.223-0.117-0.31-0.207-0.088-0.093-0.157-0.201-0.2-0.319-0.048-0.131-0.072-0.27-0.070-0.409-0.002-0.14 0.024-0.279 0.076-0.41 0.048-0.119 0.12-0.227 0.213-0.319 0.093-0.090 0.206-0.161 0.329-0.208 0.135-0.050 0.279-0.075 0.424-0.073 0.134-0.003 0.268 0.020 0.393 0.067 0.109 0.045 0.209 0.107 0.295 0.184l-0.092 0.123c-0.006 0.009-0.014 0.016-0.023 0.022-0.011 0.007-0.024 0.010-0.037 0.009s-0.028-0.006-0.040-0.013l-0.049-0.033-0.068-0.042c-0.030-0.016-0.060-0.029-0.092-0.041-0.041-0.014-0.083-0.025-0.125-0.033-0.054-0.009-0.108-0.014-0.163-0.013-0.104-0.001-0.208 0.017-0.304 0.055-0.090 0.035-0.172 0.087-0.239 0.154-0.068 0.071-0.121 0.155-0.155 0.246-0.039 0.104-0.058 0.214-0.056 0.324-0.002 0.112 0.017 0.224 0.056 0.329 0.034 0.090 0.085 0.173 0.152 0.244 0.063 0.066 0.141 0.118 0.228 0.152 0.090 0.035 0.186 0.053 0.283 0.052 0.056 0.001 0.112-0.003 0.167-0.010 0.090-0.011 0.177-0.041 0.254-0.088 0.038-0.024 0.075-0.051 0.108-0.081 0.014-0.013 0.033-0.020 0.052-0.021z"></path>
<path d="M23.62 26.512c0.002 0.139-0.023 0.276-0.074 0.407-0.045 0.118-0.115 0.226-0.207 0.316s-0.202 0.161-0.324 0.207c-0.268 0.098-0.565 0.098-0.834 0-0.121-0.047-0.231-0.118-0.322-0.208-0.091-0.092-0.162-0.2-0.208-0.319-0.099-0.263-0.099-0.551 0-0.814 0.047-0.119 0.117-0.228 0.208-0.32 0.092-0.087 0.202-0.155 0.322-0.2 0.268-0.099 0.566-0.099 0.834 0 0.122 0.047 0.232 0.118 0.324 0.208 0.090 0.091 0.161 0.198 0.207 0.315 0.051 0.131 0.076 0.27 0.074 0.409zM23.332 26.512c0.002-0.111-0.016-0.221-0.052-0.327-0.031-0.090-0.081-0.173-0.147-0.244-0.064-0.067-0.143-0.12-0.232-0.154-0.195-0.071-0.411-0.071-0.607 0-0.088 0.034-0.167 0.087-0.232 0.154-0.067 0.070-0.117 0.154-0.148 0.244-0.070 0.213-0.070 0.441 0 0.654 0.031 0.090 0.082 0.174 0.148 0.244 0.064 0.067 0.144 0.119 0.232 0.153 0.196 0.070 0.411 0.070 0.607 0 0.088-0.034 0.167-0.086 0.232-0.153 0.066-0.071 0.116-0.154 0.147-0.244 0.037-0.105 0.054-0.216 0.052-0.327z"></path>
<path d="M25.782 26.855l0.029 0.073c0.011-0.026 0.021-0.050 0.032-0.073 0.010-0.025 0.022-0.049 0.036-0.072l0.701-1.214c0.014-0.021 0.026-0.034 0.040-0.038 0.019-0.005 0.038-0.008 0.058-0.006h0.207v1.975h-0.246v-1.452c0-0.018 0-0.039 0-0.061-0.001-0.023-0.001-0.045 0-0.068l-0.705 1.231c-0.009 0.018-0.023 0.034-0.041 0.045s-0.039 0.017-0.060 0.017h-0.040c-0.021 0-0.042-0.005-0.060-0.016s-0.032-0.027-0.041-0.045l-0.726-1.239c0 0.024 0 0.047 0 0.071s0 0.044 0 0.063v1.452h-0.237v-1.971h0.207c0.020-0.001 0.039 0.001 0.058 0.006 0.017 0.008 0.030 0.021 0.038 0.038l0.716 1.215c0.014 0.022 0.026 0.046 0.036 0.071z"></path>
<path d="M28.42 26.757v0.74h-0.274v-1.972h0.612c0.116-0.002 0.231 0.012 0.342 0.043 0.089 0.024 0.171 0.066 0.241 0.123 0.061 0.053 0.108 0.12 0.137 0.193 0.032 0.080 0.048 0.166 0.047 0.252 0.001 0.087-0.016 0.172-0.051 0.252-0.033 0.076-0.084 0.143-0.148 0.197-0.070 0.059-0.153 0.104-0.243 0.131-0.107 0.033-0.218 0.048-0.331 0.046l-0.332-0.005zM28.42 26.545h0.332c0.072 0.001 0.144-0.009 0.213-0.030 0.057-0.018 0.109-0.047 0.154-0.085 0.041-0.036 0.073-0.081 0.093-0.131 0.022-0.053 0.034-0.109 0.033-0.166 0.003-0.055-0.006-0.11-0.027-0.161s-0.054-0.097-0.096-0.135c-0.105-0.078-0.236-0.116-0.369-0.106h-0.332v0.813z"></path>
<path d="M32.107 27.499h-0.217c-0.022 0.001-0.043-0.006-0.060-0.018-0.016-0.012-0.028-0.028-0.036-0.046l-0.186-0.477h-0.937l-0.194 0.477c-0.007 0.017-0.019 0.033-0.034 0.044-0.017 0.013-0.039 0.020-0.062 0.020h-0.217l0.823-1.975h0.285l0.834 1.975zM30.749 26.766h0.774l-0.327-0.804c-0.025-0.060-0.046-0.122-0.062-0.186l-0.032 0.103c-0.010 0.031-0.021 0.060-0.030 0.084l-0.324 0.802z"></path>
<path d="M33.292 25.534c0.016 0.009 0.031 0.021 0.041 0.035l1.2 1.489c0-0.024 0-0.047 0-0.069s0-0.044 0-0.065v-1.398h0.246v1.975h-0.137c-0.019 0.001-0.039-0.003-0.056-0.012-0.017-0.009-0.032-0.022-0.044-0.037l-1.199-1.487c0.001 0.023 0.001 0.045 0 0.068 0 0.022 0 0.042 0 0.060v1.408h-0.246v-1.975h0.145c0.017-0 0.034 0.003 0.049 0.009z"></path>
<path d="M36.802 26.714v0.784h-0.274v-0.784l-0.759-1.189h0.246c0.021-0.001 0.042 0.005 0.059 0.017 0.015 0.013 0.028 0.028 0.037 0.044l0.474 0.767c0.019 0.033 0.036 0.063 0.050 0.091s0.025 0.056 0.034 0.084l0.036-0.085c0.013-0.031 0.029-0.061 0.047-0.090l0.468-0.772c0.010-0.015 0.022-0.029 0.036-0.042 0.016-0.014 0.038-0.021 0.059-0.020h0.248l-0.76 1.195z"></path>
<path d="M25.646 22.21c0.119 0.014 0.24 0.026 0.362 0.037 1.851-0.789 3.417-2.080 4.502-3.712s1.641-3.533 1.598-5.464l-2.040-1.943c0.415 2.056 0.221 4.182-0.56 6.14s-2.118 3.669-3.863 4.944z"></path>
<path d="M24.917 22.12l0.055 0.011c1.864-1.27 3.284-3.043 4.079-5.091s0.926-4.275 0.377-6.395l-2.905-2.768c1.175 2.275 1.648 4.822 1.364 7.343s-1.314 4.914-2.969 6.9z"></path>
<path d="M34.771 15.353c-0.493 2.122-1.692 4.036-3.419 5.458-0.504 0.418-1.048 0.789-1.624 1.111 1.405-0.394 2.697-1.089 3.776-2.034s1.915-2.112 2.445-3.413l-1.178-1.121z"></path>
<path d="M34.309 15.040l-1.678-1.598c-0.032 1.822-0.576 3.603-1.575 5.158s-2.417 2.826-4.106 3.681h0.008c0.376-0 0.752-0.022 1.126-0.064 1.579-0.614 2.973-1.59 4.059-2.843s1.83-2.741 2.165-4.334z"></path>
<path d="M25.16 6.71l-2.002-1.909c-1.789 0.659-3.328 1.817-4.415 3.322s-1.672 3.289-1.677 5.117v0c0.007 2.019 0.72 3.979 2.027 5.568s3.133 2.718 5.19 3.208c1.836-2.131 2.91-4.764 3.068-7.516s-0.61-5.481-2.191-7.79z"></path>
<path d="M38.933 14.746c-0.007-2.396-1.009-4.692-2.788-6.386s-4.188-2.649-6.703-2.656c-1.162-0.001-2.314 0.203-3.398 0.603l12.254 11.675c0.42-1.032 0.634-2.129 0.634-3.236z"></path>
</symbol>
<symbol id="icon-2-svg" viewBox="0 0 25 32">
<path d="M10.448 1.806h0.084c0.156 0 0.324 0.016 0.49 0.030 0.734 0.052 1.463 0.162 2.18 0.329v-1.762c-0.738-0.185-1.491-0.305-2.25-0.358-0.288-0.022-0.595-0.036-0.909-0.044h-0.263c-1.523 0.006-3.039 0.201-4.514 0.582-1.68 0.419-3.293 1.075-4.79 1.948v17.475c1.442-0.783 2.976-1.381 4.566-1.779 1.255-0.32 2.539-0.517 3.833-0.588h0.051c0.216-0.011 0.433-0.017 0.655-0.019v-1.79c-1.681 0.022-3.353 0.244-4.982 0.662-0.602 0.157-1.185 0.326-1.731 0.513l-0.623 0.211v-13.625l0.266-0.128c2.031-0.963 4.229-1.524 6.471-1.651 0.019-0.001 0.038-0.001 0.056 0 0.248-0.013 0.497-0.019 0.741-0.019h0.28c0.129 0.003 0.258 0.006 0.388 0.014z"></path>
<path d="M14.838 3.651c-0.409 0-0.814-0.014-1.205-0.044-0.467-0.034-0.947-0.091-1.401-0.167-0.277-0.047-0.55-0.103-0.814-0.164v17.275c1.12 0.277 2.271 0.413 3.425 0.404 1.523-0.006 3.039-0.201 4.514-0.581 1.681-0.419 3.294-1.075 4.792-1.948v-17.164c-1.441 0.783-2.975 1.381-4.564 1.781-1.551 0.398-3.145 0.603-4.747 0.609zM21.745 3.95l0.623-0.21v13.63l-0.266 0.128c-1.021 0.486-2.087 0.869-3.184 1.144-1.331 0.344-2.7 0.522-4.074 0.527-0.411 0-0.819-0.017-1.214-0.052l-0.427-0.038v-14.017l0.497 0.033c0.361 0.024 0.735 0.034 1.141 0.034 1.745-0.006 3.482-0.229 5.173-0.663 0.581-0.153 1.158-0.325 1.731-0.518z"></path>
<path d="M1.685 25.977c-0.090-0.093-0.197-0.166-0.317-0.214s-0.248-0.071-0.376-0.066c-0.137-0.002-0.273 0.024-0.4 0.075-0.117 0.046-0.222 0.116-0.311 0.205s-0.157 0.196-0.201 0.313c-0.049 0.123-0.073 0.254-0.071 0.387v2.335c-0.005 0.165 0.026 0.328 0.092 0.479 0.055 0.12 0.135 0.226 0.233 0.313 0.093 0.079 0.203 0.135 0.321 0.166 0.114 0.032 0.231 0.048 0.349 0.049 0.13 0.001 0.259-0.027 0.377-0.081 0.117-0.051 0.223-0.124 0.312-0.216 0.087-0.091 0.156-0.197 0.204-0.313 0.050-0.118 0.075-0.244 0.075-0.372v-0.261h-0.61v0.208c0.002 0.071-0.010 0.142-0.036 0.208-0.020 0.050-0.050 0.095-0.089 0.131-0.038 0.031-0.081 0.053-0.128 0.067-0.041 0.014-0.084 0.021-0.128 0.022-0.054 0.006-0.11-0.002-0.16-0.024s-0.094-0.057-0.126-0.101c-0.058-0.094-0.086-0.203-0.081-0.313v-2.177c-0.004-0.121 0.022-0.241 0.075-0.349 0.032-0.049 0.077-0.089 0.129-0.113s0.112-0.034 0.17-0.027c0.053-0.002 0.105 0.009 0.152 0.032s0.089 0.057 0.12 0.099c0.069 0.090 0.104 0.2 0.101 0.313v0.202h0.604v-0.238c0.001-0.14-0.024-0.278-0.075-0.409-0.045-0.122-0.115-0.234-0.204-0.329z"></path>
<path d="M5.31 25.95c-0.195-0.164-0.44-0.255-0.694-0.257-0.124 0-0.248 0.023-0.364 0.066-0.119 0.042-0.228 0.107-0.322 0.191-0.101 0.091-0.182 0.202-0.236 0.327-0.062 0.143-0.092 0.297-0.089 0.452v2.239c-0.004 0.158 0.026 0.314 0.089 0.459 0.055 0.12 0.136 0.227 0.236 0.313 0.093 0.087 0.203 0.154 0.322 0.197 0.117 0.043 0.24 0.065 0.364 0.066s0.248-0.022 0.364-0.066c0.121-0.044 0.233-0.111 0.33-0.197 0.097-0.087 0.175-0.194 0.23-0.313 0.063-0.144 0.093-0.301 0.089-0.459v-2.239c0.003-0.155-0.027-0.31-0.089-0.452-0.054-0.123-0.133-0.235-0.23-0.327zM5.025 28.969c0.005 0.060-0.003 0.12-0.024 0.176s-0.054 0.107-0.097 0.148c-0.081 0.067-0.182 0.105-0.287 0.105s-0.206-0.037-0.287-0.105c-0.043-0.041-0.076-0.092-0.097-0.148s-0.029-0.116-0.024-0.176v-2.239c-0.005-0.060 0.003-0.12 0.024-0.176s0.054-0.107 0.097-0.148c0.081-0.068 0.182-0.105 0.287-0.105s0.207 0.037 0.287 0.105c0.043 0.041 0.076 0.092 0.097 0.148s0.029 0.116 0.024 0.176v2.239z"></path>
<path d="M10.073 29.969v-4.239h-0.587l-0.771 2.244h-0.011l-0.777-2.244h-0.58v4.239h0.606v-2.579h0.011l0.593 1.823h0.302l0.598-1.823h0.011v2.579h0.606z"></path>
<path d="M13.513 26.027c-0.093-0.105-0.211-0.184-0.342-0.232-0.142-0.046-0.29-0.068-0.439-0.066h-0.9v4.239h0.604v-1.656h0.311c0.189 0.009 0.376-0.031 0.545-0.116 0.137-0.076 0.252-0.188 0.331-0.324 0.070-0.113 0.117-0.238 0.139-0.369 0.024-0.16 0.035-0.321 0.033-0.482 0.006-0.204-0.014-0.407-0.059-0.606-0.040-0.147-0.117-0.281-0.223-0.39zM13.201 27.32c-0.003 0.077-0.022 0.152-0.056 0.221-0.035 0.065-0.089 0.117-0.156 0.149-0.090 0.040-0.187 0.058-0.285 0.053h-0.275v-1.441h0.312c0.094-0.005 0.187 0.014 0.272 0.053 0.063 0.036 0.112 0.091 0.142 0.156 0.033 0.074 0.051 0.155 0.053 0.236 0 0.089 0 0.183 0 0.282s0.006 0.2 0 0.291h-0.006z"></path>
<path d="M16.374 25.73h-0.495l-0.934 4.239h0.604l0.178-0.911h0.823l0.178 0.911h0.604l-0.957-4.239zM15.817 28.481l0.297-1.537h0.011l0.296 1.537h-0.604z"></path>
<path d="M20.277 28.284h-0.011l-0.912-2.554h-0.581v4.239h0.604v-2.549h0.013l0.923 2.549h0.568v-4.239h-0.604v2.554z"></path>
<path d="M23.968 25.73l-0.486 1.685h-0.012l-0.486-1.685h-0.64l0.83 2.448v1.792h0.604v-1.792l0.83-2.448h-0.64z"></path>
<path d="M0 31.166h0.291v0.817h0.198v-0.817h0.289v-0.167h-0.778v0.167z"></path>
<path d="M2.447 30.999l-0.381 0.984h0.21l0.081-0.224h0.392l0.084 0.224h0.215l-0.391-0.984h-0.21zM2.416 31.594l0.134-0.365 0.134 0.365h-0.268z"></path>
<path d="M4.866 31.62h0.227v0.127c-0.066 0.053-0.149 0.082-0.233 0.083-0.040 0.002-0.079-0.005-0.116-0.021s-0.068-0.041-0.093-0.072c-0.052-0.075-0.078-0.165-0.073-0.257 0-0.219 0.095-0.329 0.283-0.329 0.050-0.005 0.099 0.008 0.14 0.037s0.070 0.071 0.083 0.12l0.194-0.038c-0.042-0.192-0.181-0.29-0.417-0.29-0.127-0.003-0.25 0.042-0.344 0.127-0.050 0.049-0.088 0.108-0.112 0.174s-0.035 0.135-0.029 0.205c-0.006 0.135 0.039 0.267 0.126 0.369 0.048 0.050 0.107 0.088 0.171 0.113s0.133 0.035 0.203 0.031c0.154 0.004 0.303-0.052 0.417-0.157v-0.388h-0.427v0.166z"></path>
<path d="M7.337 30.999h-0.199v0.984h0.69v-0.167h-0.49v-0.817z"></path>
<path d="M9.227 30.999h0.199v0.984h-0.199v-0.984z"></path>
<path d="M11.469 31.656l-0.403-0.657h-0.193v0.984h0.185v-0.643l0.395 0.643h0.198v-0.984h-0.182v0.657z"></path>
<path d="M13.315 31.55h0.49v-0.167h-0.49v-0.216h0.528v-0.167h-0.727v0.984h0.747v-0.167h-0.548v-0.266z"></path>
<path d="M17.792 31.387h-0.388v-0.388h-0.198v0.984h0.198v-0.43h0.388v0.43h0.198v-0.984h-0.198v0.388z"></path>
<path d="M19.65 31.55h0.492v-0.167h-0.492v-0.216h0.529v-0.167h-0.727v0.984h0.746v-0.167h-0.548v-0.266z"></path>
<path d="M22.169 31.55c0.171-0.027 0.258-0.117 0.258-0.274 0.005-0.042-0.001-0.084-0.018-0.123s-0.044-0.072-0.078-0.096c-0.089-0.045-0.189-0.065-0.288-0.058h-0.417v0.984h0.198v-0.412h0.039c0.042-0.003 0.084 0.005 0.123 0.022 0.029 0.018 0.053 0.043 0.070 0.072l0.215 0.313h0.236l-0.12-0.192c-0.053-0.095-0.128-0.176-0.218-0.236zM21.969 31.413h-0.146v-0.247h0.156c0.068-0.006 0.136 0.002 0.201 0.023 0.014 0.013 0.026 0.029 0.033 0.046s0.011 0.037 0.010 0.056c-0.001 0.019-0.006 0.038-0.015 0.055s-0.022 0.032-0.038 0.043c-0.065 0.020-0.133 0.028-0.201 0.023z"></path>
<path d="M24.068 31.55h0.49v-0.167h-0.49v-0.216h0.529v-0.167h-0.729v0.984h0.747v-0.167h-0.548v-0.266z"></path>
</symbol>
<symbol id="icon-1-svg" viewBox="0 0 29 32">
<path d="M3.9 0l4.75 4.497h13.251v12.545l4.75 4.497v-21.539h-22.752z"></path>
<path d="M0 4.308v20.923h22.102v-8.317l-13.311-12.601-8.791-0.005zM17.891 22.17h-14.394v-14.072h1.018v13.119h13.377v0.953z"></path>
<path d="M6.365 29.112l0.532-1.095h0.444l-0.774 1.46v0.851h-0.403v-0.851l-0.776-1.46h0.446l0.532 1.095zM8.647 29.789h-0.895l-0.187 0.538h-0.417l0.873-2.311h0.36l0.874 2.311h-0.419l-0.189-0.538zM7.864 29.466h0.67l-0.335-0.959-0.335 0.959zM10.228 29.704q0-0.16 0.087-0.294t0.344-0.318q-0.135-0.17-0.188-0.289t-0.053-0.23q0-0.271 0.165-0.429t0.444-0.158q0.252 0 0.413 0.148t0.161 0.367q0 0.144-0.073 0.266t-0.24 0.242l-0.157 0.114 0.446 0.527q0.097-0.19 0.097-0.424h0.335q0 0.427-0.2 0.7l0.34 0.402h-0.447l-0.13-0.154q-0.248 0.186-0.59 0.186t-0.548-0.182-0.206-0.474zM10.993 30.051q0.195 0 0.365-0.13l-0.505-0.595-0.049 0.035q-0.19 0.144-0.19 0.33 0 0.16 0.103 0.26t0.276 0.1zM10.78 28.563q0 0.133 0.164 0.335l0.176-0.121 0.049-0.040q0.098-0.087 0.098-0.224 0-0.090-0.068-0.155t-0.173-0.064q-0.113 0-0.179 0.076t-0.067 0.192zM14.976 29.575q-0.035 0.37-0.273 0.577t-0.633 0.207q-0.276 0-0.486-0.131t-0.325-0.372-0.119-0.56v-0.216q0-0.327 0.116-0.576t0.332-0.384 0.501-0.135q0.383 0 0.616 0.208t0.271 0.587h-0.4q-0.029-0.249-0.145-0.359t-0.342-0.11q-0.262 0-0.402 0.191t-0.144 0.561v0.205q0 0.375 0.134 0.571t0.393 0.197q0.236 0 0.355-0.106t0.151-0.354h0.4zM17.179 29.232q0 0.34-0.117 0.596t-0.336 0.394-0.502 0.137q-0.281 0-0.501-0.137t-0.34-0.391-0.121-0.586v-0.13q0-0.338 0.12-0.597t0.338-0.396 0.501-0.137 0.501 0.136 0.337 0.39 0.121 0.593v0.128zM16.777 29.112q0-0.384-0.145-0.589t-0.412-0.205q-0.26 0-0.407 0.204t-0.15 0.577v0.133q0 0.381 0.148 0.589t0.412 0.208q0.267 0 0.41-0.203t0.144-0.594v-0.121z"></path>
</symbol>
</defs>
</svg>
