<svg width="70.000000" height="70.000000" viewBox="0 0 70 70" fill="none" xmlns="http://www.w3.org/2000/svg" xmlns:xlink="http://www.w3.org/1999/xlink">
	<desc>
			Created with Pixso.
	</desc>
	<defs>
		<clipPath id="clip60_7970">
			<rect id="diagram 1" width="70.000000" height="70.000000" fill="white" fill-opacity="0"/>
		</clipPath>
	</defs>
	<rect id="diagram 1" width="70.000000" height="70.000000" fill="#FFFFFF" fill-opacity="0"/>
	<g clip-path="url(#clip60_7970)">
		<path id="Vector" d="M32.6494 32.7351L34.9814 32.7351L34.9814 43.2296L32.6494 43.2296L32.6494 32.7351Z" fill="#2196F3" fill-opacity="1.000000" fill-rule="nonzero"/>
		<path id="Vector" d="M41.978 37.3993L44.3101 37.3993L44.3101 43.2296L41.978 43.2296L41.978 37.3993Z" fill="#2196F3" fill-opacity="1.000000" fill-rule="nonzero"/>
		<path id="Vector" d="M23.3213 40.8975L25.6533 40.8975L25.6533 43.2296L23.3213 43.2296L23.3213 40.8975Z" fill="#2196F3" fill-opacity="1.000000" fill-rule="nonzero"/>
		<path id="Vector" d="M16.3247 39.7314L18.6567 39.7314L18.6567 43.2296L16.3247 43.2296L16.3247 39.7314Z" fill="#2196F3" fill-opacity="1.000000" fill-rule="nonzero"/>
		<path id="Vector" d="M3.49805 61.8866L59.4688 61.8866C61.4009 61.8866 62.9668 60.3203 62.9668 58.3884L62.9668 53.7241C62.9668 51.7924 61.4009 50.226 59.4688 50.226L58.3027 50.226L58.3027 21.147L64.9263 14.8726C66.4634 15.6304 68.3242 15.1703 69.3301 13.7816C70.3369 12.3936 70.1958 10.4822 68.9966 9.25696C67.7974 8.03162 65.8901 7.84888 64.48 8.82422C63.0703 9.80005 62.5688 11.6499 63.2935 13.2037L58.3027 17.9346L58.3027 15.2443C58.3027 13.3125 56.7363 11.7461 54.8047 11.7461L8.1626 11.7461C6.23047 11.7461 4.66406 13.3125 4.66406 15.2443L4.66406 50.226L3.49805 50.226C1.56641 50.226 0 51.7924 0 53.7241L0 58.3884C0 60.3203 1.56641 61.8866 3.49805 61.8866ZM66.4653 10.5801C67.1094 10.5801 67.6313 11.1022 67.6313 11.7461C67.6313 12.3901 67.1094 12.9122 66.4653 12.9122C65.8213 12.9122 65.2993 12.3901 65.2993 11.7461C65.2993 11.1022 65.8213 10.5801 66.4653 10.5801ZM6.99609 15.2443C6.99609 14.6003 7.51855 14.0782 8.1626 14.0782L54.8047 14.0782C55.4487 14.0782 55.9707 14.6003 55.9707 15.2443L55.9707 20.1414L53.6387 22.3574L53.6387 17.5764C53.6387 16.9325 53.1167 16.4104 52.4727 16.4104L10.4946 16.4104C9.85059 16.4104 9.32861 16.9325 9.32861 17.5764L9.32861 46.7278C9.32861 47.3718 9.85059 47.8939 10.4946 47.8939L52.4727 47.8939C53.1167 47.8939 53.6387 47.3718 53.6387 46.7278L53.6387 25.5652L55.9707 23.3555L55.9707 50.226L6.99609 50.226L6.99609 15.2443ZM17.4907 30.4031C15.9131 30.3986 14.5278 31.4496 14.1084 32.9703C13.6885 34.4911 14.3384 36.1041 15.6953 36.9092C17.0513 37.7142 18.7793 37.5121 19.9131 36.4149L23.9663 38.4487C24.437 38.6844 25.0083 38.574 25.3584 38.1805L33.9746 28.4872L42.4443 34.8339C42.8984 35.1743 43.5327 35.1379 43.9453 34.7479L51.3066 27.7749L51.3066 45.5618L11.6606 45.5618L11.6606 18.7424L51.3066 18.7424L51.3066 24.562L43.0562 32.3748L34.5151 25.9717C34.0303 25.6084 33.3477 25.6768 32.9443 26.1294L24.21 35.9572L20.9448 34.3242C20.9688 34.1842 20.9834 34.043 20.9888 33.9012C20.9888 31.9694 19.4229 30.4031 17.4907 30.4031ZM18.6567 33.9012C18.6567 34.5452 18.1348 35.0673 17.4907 35.0673C16.8467 35.0673 16.3247 34.5452 16.3247 33.9012C16.3247 33.2573 16.8467 32.7351 17.4907 32.7351C18.1348 32.7351 18.6567 33.2573 18.6567 33.9012ZM25.6533 52.5581L37.314 52.5581L37.314 53.7241C37.314 54.3682 36.7915 54.8903 36.1479 54.8903L26.8193 54.8903C26.1753 54.8903 25.6533 54.3682 25.6533 53.7241L25.6533 52.5581ZM2.33203 53.7241C2.33203 53.0802 2.854 52.5581 3.49805 52.5581L23.3213 52.5581L23.3213 53.7241C23.3213 55.656 24.8872 57.2224 26.8193 57.2224L36.1479 57.2224C38.0796 57.2224 39.646 55.656 39.646 53.7241L39.646 52.5581L59.4688 52.5581C60.1128 52.5581 60.6348 53.0802 60.6348 53.7241L60.6348 58.3884C60.6348 59.0323 60.1128 59.5544 59.4688 59.5544L3.49805 59.5544C2.854 59.5544 2.33203 59.0323 2.33203 58.3884L2.33203 53.7241Z" fill="#212121" fill-opacity="1.000000" fill-rule="nonzero"/>
	</g>
</svg>
