<svg aria-hidden="true" style="position: absolute; width: 0; height: 0; overflow: hidden;" version="1.1" xmlns="http://www.w3.org/2000/svg" xmlns:xlink="http://www.w3.org/1999/xlink">
<defs>
<symbol id="icon-instagram" viewBox="0 0 32 32">
<path d="M16 2.881c4.275 0 4.781 0.019 6.462 0.094 1.563 0.069 2.406 0.331 2.969 0.55 0.744 0.288 1.281 0.638 1.837 1.194 0.563 0.563 0.906 1.094 1.2 1.838 0.219 0.563 0.481 1.412 0.55 2.969 0.075 1.688 0.094 2.194 0.094 6.463s-0.019 4.781-0.094 6.463c-0.069 1.563-0.331 2.406-0.55 2.969-0.288 0.744-0.637 1.281-1.194 1.837-0.563 0.563-1.094 0.906-1.837 1.2-0.563 0.219-1.413 0.481-2.969 0.55-1.688 0.075-2.194 0.094-6.463 0.094s-4.781-0.019-6.463-0.094c-1.563-0.069-2.406-0.331-2.969-0.55-0.744-0.288-1.281-0.637-1.838-1.194-0.563-0.563-0.906-1.094-1.2-1.837-0.219-0.563-0.481-1.413-0.55-2.969-0.075-1.688-0.094-2.194-0.094-6.463s0.019-4.781 0.094-6.463c0.069-1.563 0.331-2.406 0.55-2.969 0.288-0.744 0.638-1.281 1.194-1.838 0.563-0.563 1.094-0.906 1.838-1.2 0.563-0.219 1.412-0.481 2.969-0.55 1.681-0.075 2.188-0.094 6.463-0.094zM16 0c-4.344 0-4.887 0.019-6.594 0.094-1.7 0.075-2.869 0.35-3.881 0.744-1.056 0.412-1.95 0.956-2.837 1.85-0.894 0.888-1.438 1.781-1.85 2.831-0.394 1.019-0.669 2.181-0.744 3.881-0.075 1.713-0.094 2.256-0.094 6.6s0.019 4.887 0.094 6.594c0.075 1.7 0.35 2.869 0.744 3.881 0.413 1.056 0.956 1.95 1.85 2.837 0.887 0.887 1.781 1.438 2.831 1.844 1.019 0.394 2.181 0.669 3.881 0.744 1.706 0.075 2.25 0.094 6.594 0.094s4.888-0.019 6.594-0.094c1.7-0.075 2.869-0.35 3.881-0.744 1.050-0.406 1.944-0.956 2.831-1.844s1.438-1.781 1.844-2.831c0.394-1.019 0.669-2.181 0.744-3.881 0.075-1.706 0.094-2.25 0.094-6.594s-0.019-4.887-0.094-6.594c-0.075-1.7-0.35-2.869-0.744-3.881-0.394-1.063-0.938-1.956-1.831-2.844-0.887-0.887-1.781-1.438-2.831-1.844-1.019-0.394-2.181-0.669-3.881-0.744-1.712-0.081-2.256-0.1-6.6-0.1v0z"></path>
<path d="M16 7.781c-4.537 0-8.219 3.681-8.219 8.219s3.681 8.219 8.219 8.219 8.219-3.681 8.219-8.219c0-4.537-3.681-8.219-8.219-8.219zM16 21.331c-2.944 0-5.331-2.387-5.331-5.331s2.387-5.331 5.331-5.331c2.944 0 5.331 2.387 5.331 5.331s-2.387 5.331-5.331 5.331z"></path>
<path d="M26.462 7.456c0 1.060-0.859 1.919-1.919 1.919s-1.919-0.859-1.919-1.919c0-1.060 0.859-1.919 1.919-1.919s1.919 0.859 1.919 1.919z"></path>
</symbol>
<symbol id="icon-linkedin" viewBox="0 0 32 32">
<path d="M12 12h5.535v2.837h0.079c0.77-1.381 2.655-2.837 5.464-2.837 5.842 0 6.922 3.637 6.922 8.367v9.633h-5.769v-8.54c0-2.037-0.042-4.657-3.001-4.657-3.005 0-3.463 2.218-3.463 4.509v8.688h-5.767v-18z"></path>
<path d="M2 12h6v18h-6v-18z"></path>
<path d="M8 7c0 1.657-1.343 3-3 3s-3-1.343-3-3c0-1.657 1.343-3 3-3s3 1.343 3 3z"></path>
</symbol>
<symbol id="icon-astronaut" viewBox="0 0 29 32">
<path d="M28.519 13.581c-0.332-0.447-0.819-0.735-1.371-0.813-0.555-0.079-1.103 0.067-1.546 0.406l-1.445 1.108-2.19 1.635-1.567-0.624c2.794-1.254 4.747-4.048 4.747-7.293 0-4.411-3.603-8.001-8.033-8.001s-8.033 3.589-8.033 8.001c0 1.599 0.478 3.086 1.292 4.337l-3.189-0.028c-0.002 0-0.004 0-0.006 0-0.010 0-0.018 0.005-0.027 0.006-0.061 0.002-0.121 0.015-0.179 0.036-0.015 0.006-0.030 0.009-0.044 0.015-0.007 0.003-0.015 0.004-0.022 0.007l-3.731 1.842c-0.001 0-0.001 0-0.001 0.001l-2.185 1.051c-0.024 0.010-0.049 0.025-0.073 0.041-0.871 0.58-1.167 1.718-0.69 2.649 0.254 0.495 0.687 0.859 1.219 1.026 0.205 0.064 0.414 0.095 0.622 0.095 0.334 0 0.665-0.082 0.969-0.244l1.601-0.852 2.613-1.349 1.566-0.009-6.279 6.249c-0.001 0.001-0.001 0.001-0.002 0.001l-1.545 1.539c-0.365 0.363-0.566 0.845-0.566 1.359s0.201 0.996 0.566 1.36c0.375 0.373 0.868 0.56 1.361 0.56s0.986-0.187 1.362-0.56l1.516-1.51 2.009-1.5 1.040 1.035-2.033 2.024c-0.001 0.001-0.001 0.001-0.002 0.001l-1.545 1.539c-0.365 0.363-0.566 0.845-0.566 1.359s0.201 0.996 0.566 1.36c0.375 0.373 0.868 0.56 1.361 0.56s0.987-0.187 1.362-0.56l4.018-4c0.001-0.001 0.001-0.001 0.001-0.002l1.165-1.154-0.004-0.004c0.007-0.007 0.018-0.010 0.025-0.018l5.961-6.529 4.005 0.57c0.029 0.004 0.058 0.006 0.087 0.006 0.074 0 0.146-0.018 0.216-0.044 0.020-0.007 0.038-0.017 0.057-0.027 0.022-0.011 0.045-0.017 0.066-0.031l3.708-2.462c0.014-0.009 0.021-0.024 0.034-0.034 0.015-0.012 0.033-0.017 0.047-0.030l1.467-1.374c0.763-0.715 0.869-1.887 0.245-2.725zM2.458 17.748c-0.2 0.107-0.427 0.129-0.644 0.060-0.215-0.067-0.39-0.214-0.492-0.413-0.186-0.362-0.078-0.803 0.247-1.041l1.516-0.729 0.518 1.514-1.145 0.609zM6.494 15.639l-1.787 0.923-0.506-1.481 2.339-1.155-0.046 1.712zM23.917 7.999c0 1.060-0.253 2.059-0.691 2.953l-4.825-2.192c-0.050-0.662-0.394-1.241-0.91-1.601l1.689-5.608c2.744 0.873 4.736 3.432 4.736 6.448zM10.314 7.999c0-3.733 3.051-6.77 6.802-6.77 0.292 0 0.577 0.025 0.86 0.060l-1.652 5.485c-0.022-0.001-0.043-0.007-0.066-0.007-1.192 0-2.161 0.966-2.161 2.154s0.969 2.154 2.161 2.154c0.801 0 1.494-0.442 1.867-1.090l4.457 2.025c-1.24 1.669-3.225 2.758-5.466 2.758-3.75 0-6.802-3.037-6.802-6.77zM17.187 8.923c0 0.509-0.417 0.923-0.93 0.923s-0.93-0.414-0.93-0.923c0-0.509 0.417-0.923 0.93-0.923s0.93 0.414 0.93 0.923zM2.844 26.259c-0.273 0.27-0.714 0.27-0.986 0.001-0.131-0.131-0.203-0.304-0.203-0.488s0.072-0.356 0.203-0.486l1.11-1.106 0.982 0.978-1.106 1.102zM6.553 30.567c-0.273 0.27-0.715 0.271-0.987 0.001-0.131-0.131-0.203-0.304-0.203-0.488s0.072-0.356 0.203-0.486l1.111-1.107 0.983 0.978-1.107 1.102zM10.57 26.564c-0.001 0.001-0.001 0.001-0.002 0.001l-2.036 2.031-0.983-0.978 2.035-2.025c0 0 0 0 0-0.001s0.001-0.001 0.002-0.001c0.046-0.046 0.075-0.102 0.103-0.156 0.008-0.016 0.023-0.030 0.030-0.046 0.019-0.047 0.022-0.099 0.030-0.148 0.004-0.028 0.016-0.055 0.016-0.084 0-0.041-0.015-0.081-0.023-0.122-0.007-0.037-0.007-0.075-0.022-0.11-0.023-0.058-0.063-0.109-0.105-0.159-0.012-0.014-0.016-0.031-0.029-0.044 0 0 0 0-0.001 0s-0.001-0.002-0.001-0.002l-1.854-1.846c-0.020-0.020-0.045-0.028-0.067-0.044-0.033-0.025-0.064-0.049-0.1-0.067-0.035-0.017-0.071-0.028-0.108-0.038-0.039-0.011-0.078-0.020-0.119-0.023-0.037-0.002-0.073 0.001-0.11 0.006-0.041 0.005-0.080 0.010-0.12 0.023-0.039 0.012-0.073 0.031-0.109 0.052-0.023 0.013-0.049 0.017-0.070 0.033l-2.046 1.528-1.040-1.035 2.768-2.753 5.032 4.949-1.070 1.060zM18.439 18.468c-0.018-0.002-0.035 0.004-0.052 0.003-0.045-0.002-0.088 0.001-0.133 0.008-0.035 0.006-0.068 0.013-0.102 0.025-0.039 0.014-0.075 0.032-0.111 0.054-0.034 0.021-0.066 0.043-0.096 0.071-0.015 0.013-0.033 0.019-0.046 0.034l-5.421 5.938-4.994-4.912 3.269-3.252c0.241-0.24 0.242-0.63 0.002-0.871-0.121-0.121-0.281-0.181-0.44-0.18v-0.001l-2.56 0.015 0.032-1.855 3.582 0.031c1.46 1.493 3.496 2.424 5.748 2.424 0.505 0 0.997-0.052 1.476-0.142 0.046 0.037 0.092 0.074 0.15 0.098l2.781 1.108 0.176 0.875 0.206 1.022-3.465-0.493zM23.102 18.673l-0.361-1.798 1.669-1.246 1.092 1.45-2.4 1.594zM27.433 15.407l-0.967 0.906-1.075-1.427 0.959-0.735c0.179-0.138 0.405-0.194 0.627-0.165 0.223 0.031 0.42 0.148 0.554 0.328 0.25 0.337 0.207 0.806-0.098 1.093z"></path>
</symbol>
<symbol id="icon-computer" viewBox="0 0 42 32">
<path d="M2.085 32h33.361c1.151 0 2.085-0.934 2.085-2.085v-2.78c0-1.151-0.934-2.085-2.085-2.085h-0.695v-17.332l3.948-3.74c0.916 0.452 2.025 0.177 2.625-0.65s0.516-1.967-0.199-2.697c-0.715-0.73-1.852-0.839-2.692-0.258s-1.139 1.684-0.707 2.61l-2.975 2.82v-1.604c0-1.151-0.933-2.085-2.085-2.085h-27.801c-1.151 0-2.085 0.934-2.085 2.085v20.851h-0.695c-1.151 0-2.085 0.934-2.085 2.085v2.78c0 1.151 0.934 2.085 2.085 2.085zM39.616 1.419c0.384 0 0.695 0.311 0.695 0.695s-0.311 0.695-0.695 0.695c-0.384 0-0.695-0.311-0.695-0.695s0.311-0.695 0.695-0.695zM4.17 4.199c0-0.384 0.311-0.695 0.695-0.695h27.801c0.384 0 0.695 0.311 0.695 0.695v2.919l-1.39 1.321v-2.85c0-0.384-0.311-0.695-0.695-0.695h-25.021c-0.384 0-0.695 0.311-0.695 0.695v17.376c0 0.384 0.311 0.695 0.695 0.695h25.021c0.384 0 0.695-0.311 0.695-0.695v-12.614l1.39-1.317v16.016h-29.191v-20.851zM10.425 13.234c-0.94-0.003-1.766 0.624-2.016 1.53s0.137 1.868 0.946 2.348c0.808 0.48 1.838 0.359 2.514-0.295l2.416 1.212c0.281 0.14 0.621 0.075 0.83-0.16l5.136-5.778 5.048 3.783c0.271 0.203 0.649 0.181 0.895-0.051l4.388-4.156v10.602h-23.631v-15.985h23.631v3.469l-4.917 4.657-5.091-3.816c-0.289-0.217-0.696-0.176-0.936 0.094l-5.206 5.858-1.946-0.973c0.014-0.083 0.023-0.168 0.026-0.252 0-1.152-0.934-2.085-2.085-2.085zM11.12 15.319c0 0.384-0.311 0.695-0.695 0.695s-0.695-0.311-0.695-0.695 0.311-0.695 0.695-0.695c0.384 0 0.695 0.311 0.695 0.695zM15.29 26.44h6.95v0.695c0 0.384-0.311 0.695-0.695 0.695h-5.56c-0.384 0-0.695-0.311-0.695-0.695v-0.695zM1.39 27.135c0-0.384 0.311-0.695 0.695-0.695h11.815v0.695c0 1.151 0.934 2.085 2.085 2.085h5.56c1.151 0 2.085-0.934 2.085-2.085v-0.695h11.815c0.384 0 0.695 0.311 0.695 0.695v2.78c0 0.384-0.311 0.695-0.695 0.695h-33.361c-0.384 0-0.695-0.311-0.695-0.695v-2.78z"></path>
</symbol>
<symbol id="icon-clock" viewBox="0 0 32 32">
<path d="M31.297 15.301c-0.002-8.452-6.855-15.303-15.308-15.301s-15.303 6.855-15.301 15.308c0.001 6.658 4.307 12.551 10.649 14.576 0.061 0.019 0.123 0.029 0.187 0.029 0.121-0 0.239-0.032 0.343-0.094 0.135-0.080 0.236-0.207 0.283-0.356l3.865-12.25c1.057-0.005 1.909-0.866 1.903-1.923s-0.866-1.909-1.923-1.903c-0.284 0.001-0.565 0.067-0.82 0.191l-5.106-5.107c-0.253-0.245-0.657-0.238-0.902 0.016-0.239 0.247-0.239 0.639 0 0.886l5.103 5.109c-0.392 0.799-0.168 1.764 0.536 2.309l-3.683 11.673c-7.278-2.681-11.004-10.754-8.323-18.032s10.754-11.004 18.032-8.324c7.278 2.681 11.004 10.754 8.323 18.032-1.31 3.556-4.001 6.431-7.462 7.973l-0.398-1.874c-0.073-0.345-0.411-0.565-0.756-0.492-0.109 0.023-0.209 0.074-0.292 0.148l-3.837 3.426c-0.263 0.234-0.287 0.637-0.052 0.9 0.076 0.085 0.174 0.149 0.283 0.184l4.899 1.563c0.335 0.108 0.694-0.077 0.802-0.412 0.034-0.106 0.040-0.219 0.017-0.328l-0.391-1.839c5.664-2.388 9.342-7.942 9.329-14.089zM15.992 14.664c0.352 0 0.638 0.286 0.638 0.638s-0.286 0.638-0.638 0.638c-0.352 0-0.638-0.285-0.638-0.638s0.285-0.638 0.638-0.638zM18.093 29.528l2.184-1.948 0.603 2.84-2.787-0.892z"></path>
<path d="M15.354 3.185v1.275c0 0.352 0.285 0.638 0.638 0.638s0.638-0.285 0.638-0.638v-1.275c0-0.352-0.286-0.638-0.638-0.638s-0.638 0.286-0.638 0.638z"></path>
<path d="M3.876 14.664c-0.352 0-0.638 0.286-0.638 0.638s0.285 0.638 0.638 0.638h1.275c0.352 0 0.638-0.286 0.638-0.638s-0.285-0.638-0.638-0.638h-1.275z"></path>
<path d="M28.108 15.939c0.352 0 0.638-0.286 0.638-0.638s-0.285-0.638-0.638-0.638h-1.275c-0.352 0-0.638 0.286-0.638 0.638s0.286 0.638 0.638 0.638h1.275z"></path>
</symbol>
<symbol id="icon-antenna" viewBox="0 0 30 32">
<path d="M29.702 22.098l-8.443-8.505 0.937-4.615c0.242 0.094 0.499 0.144 0.758 0.146h0.006c1.192 0.014 2.17-0.941 2.184-2.133s-0.941-2.17-2.133-2.184c-1.192-0.014-2.17 0.941-2.184 2.133-0.003 0.255 0.039 0.509 0.125 0.749l-4.96 0.605-8.091-8.133c-0.099-0.101-0.235-0.159-0.377-0.16-0.14 0.001-0.274 0.056-0.373 0.155l-1.513 1.504c-0.208 0.208-0.208 0.546 0 0.754l0.814 0.826c-3.153 5.798-2.129 12.978 2.519 17.663 0.043 0.041 0.092 0.074 0.146 0.098-0.034 0.18-0.051 0.364-0.052 0.547v6.187h-6.4c-1.472 0.002-2.665 1.195-2.667 2.667v1.067c0 0.294 0.239 0.533 0.533 0.533h24.533c0.294 0 0.533-0.239 0.533-0.533v-1.067c-0.002-1.472-1.195-2.665-2.667-2.667h-6.4v-2.742c1.003 0.21 2.024 0.317 3.049 0.32 2.458-0.003 4.877-0.616 7.040-1.784l0.818 0.823c0.099 0.101 0.235 0.159 0.377 0.16 0.14-0.001 0.274-0.056 0.373-0.155l1.513-1.504c0.208-0.208 0.208-0.546 0-0.754zM22.209 6.233c0.418-0.415 1.093-0.414 1.508 0.004s0.414 1.093-0.004 1.508c-0.2 0.199-0.471 0.31-0.752 0.31h-0.003c-0.589-0.003-1.064-0.483-1.061-1.072 0.001-0.282 0.114-0.552 0.314-0.751h-0.002zM20.954 9.738l-0.598 2.946-1.176-1.182 1.774-1.763zM20.348 8.836l-1.92 1.909-1.485-1.493 3.405-0.416zM22.933 28.8c0.884 0 1.6 0.716 1.6 1.6v0.533h-23.467v-0.533c0-0.884 0.716-1.6 1.6-1.6h20.267zM15.467 26.667v1.067h-5.333v-1.067h5.333zM10.133 25.6v-4.053c0-1.294 1.196-2.347 2.667-2.347s2.667 1.053 2.667 2.347v4.053h-5.333zM16.533 23.904v-2.357c0-1.882-1.675-3.413-3.733-3.413-1.331-0.020-2.576 0.657-3.281 1.786-4.058-4.274-4.972-10.645-2.279-15.887l18.602 18.708c-2.872 1.461-6.165 1.873-9.309 1.163zM27.822 23.22l-21.057-21.181 0.755-0.752 7.935 7.98c0.004 0 0.006 0.007 0.010 0.010l13.115 13.191-0.757 0.752z"></path>
</symbol>
<symbol id="icon-contact-email" viewBox="0 0 40 32">
<path d="M36 0h-32c-2.2 0-3.98 1.8-3.98 4l-0.020 24c0 2.2 1.8 4 4 4h32c2.2 0 4-1.8 4-4v-24c0-2.2-1.8-4-4-4zM35.2 8.5l-14.14 8.84c-0.64 0.4-1.48 0.4-2.12 0l-14.14-8.84c-0.5-0.32-0.8-0.86-0.8-1.44 0-1.34 1.46-2.14 2.6-1.44l13.4 8.38 13.4-8.38c1.14-0.7 2.6 0.1 2.6 1.44 0 0.58-0.3 1.12-0.8 1.44z"></path>
</symbol>
<symbol id="icon-contact-phone" viewBox="0 0 32 32">
<path d="M28.865 21.822l-4.525-0.517c-1.087-0.125-2.156 0.249-2.922 1.015l-3.278 3.278c-5.041-2.565-9.174-6.68-11.739-11.739l3.296-3.296c0.766-0.766 1.14-1.835 1.016-2.922l-0.517-4.489c-0.214-1.799-1.728-3.153-3.545-3.153h-3.082c-2.013 0-3.688 1.674-3.563 3.688 0.944 15.213 13.111 27.362 28.306 28.306 2.013 0.125 3.687-1.55 3.687-3.563v-3.082c0.017-1.799-1.336-3.314-3.135-3.527z"></path>
</symbol>
<symbol id="icon-contact-person" viewBox="0 0 32 32">
<path d="M16 16c4.42 0 8-3.58 8-8s-3.58-8-8-8c-4.42 0-8 3.58-8 8s3.58 8 8 8zM16 20c-5.34 0-16 2.68-16 8v2c0 1.1 0.9 2 2 2h28c1.1 0 2-0.9 2-2v-2c0-5.32-10.66-8-16-8z"></path>
</symbol>
<symbol id="icon-telegram" viewBox="0 0 32 32">
<path d="M32 0l-32 18 10.227 3.788 15.773-14.788-11.998 16.186 0.010 0.004-0.012-0.004v8.814l5.735-6.691 7.265 2.691 5-28z"></path>
</symbol>
<symbol id="icon-facebook" viewBox="0 0 16 32">
<path d="M13.080 5.313h2.922v-5.088c-0.504-0.069-2.238-0.225-4.256-0.225-4.212 0-7.098 2.649-7.098 7.519v4.481h-4.648v5.688h4.648v14.312h5.699v-14.311h4.46l0.708-5.688h-5.17v-3.919c0.002-1.644 0.444-2.769 2.734-2.769z"></path>
</symbol>
<symbol id="icon-twitter" viewBox="0 0 39 32">
<path d="M39.385 3.788c-1.465 0.642-3.025 1.068-4.652 1.275 1.673-0.999 2.951-2.57 3.552-4.463-1.561 0.931-3.284 1.588-5.12 1.954-1.482-1.578-3.594-2.555-5.898-2.555-4.47 0-8.069 3.628-8.069 8.076 0 0.64 0.055 1.255 0.188 1.841-6.713-0.327-12.652-3.545-16.642-8.446-0.697 1.209-1.106 2.592-1.106 4.081 0 2.796 1.44 5.275 3.587 6.71-1.297-0.025-2.569-0.401-3.648-0.994 0 0.025 0 0.057 0 0.089 0 3.924 2.799 7.183 6.469 7.934-0.657 0.18-1.373 0.266-2.117 0.266-0.516 0-1.038-0.030-1.528-0.138 1.046 3.198 4.014 5.548 7.544 5.625-2.747 2.149-6.235 3.444-10.011 3.444-0.663 0-1.298-0.030-1.933-0.111 3.577 2.306 7.815 3.623 12.387 3.623 14.858 0 22.981-12.308 22.981-22.976 0-0.357-0.013-0.702-0.030-1.044 1.603-1.137 2.949-2.558 4.047-4.192z"></path>
</symbol>
<symbol id="icon-telephone" viewBox="0 0 20 32">
<path d="M17 0h-14c-1.654 0-3 1.346-3 3v26c0 1.654 1.346 3 3 3h14c1.654 0 3-1.346 3-3v-26c0-1.654-1.346-3-3-3zM3 2h14c0.552 0 1 0.448 1 1v21h-16v-21c0-0.552 0.448-1 1-1zM17 30h-14c-0.552 0-1-0.448-1-1v-3h16v3c0 0.552-0.448 1-1 1z"></path>
</symbol>
<symbol id="icon-envelope" viewBox="0 0 43 32">
<path d="M38.667 0h-34.667c-2.206 0-4 1.794-4 4v24c0 2.206 1.794 4 4 4h34.667c2.206 0 4-1.794 4-4v-24c0-2.206-1.794-4-4-4zM38.667 2.667c0.181 0 0.353 0.038 0.51 0.104l-17.844 15.466-17.845-15.466c0.158-0.066 0.331-0.104 0.512-0.104h34.667zM38.667 29.333h-34.667c-0.736 0-1.333-0.598-1.333-1.333v-22.413l17.793 15.421c0.251 0.217 0.563 0.326 0.874 0.326s0.622-0.108 0.874-0.326l17.793-15.421v22.413c0 0.736-0.598 1.333-1.333 1.333z"></path>
</symbol>
</defs>
</svg>
